<?xml version="1.0" encoding="iso-8859-1"?>
<svg version="1.1" id="Capa_1" xmlns="http://www.w3.org/2000/svg" xmlns:xlink="http://www.w3.org/1999/xlink" x="0px" y="0px" width="2px" height="400px" viewBox="0 0 400 400" style="enable-background:new 0 0 400 400;" xml:space="preserve">
	<defs>
		<style>.cls-1{fill:#BBC2D8;}</style>
		<style>.cls-1:hover{fill:#000;}</style>

	</defs>
	<g>
		<g>
			<path class="cls-1" d="M265.473,134.529c-5.123-5.123-13.422-5.123-18.545,0L200,181.454l-46.928-46.925c-5.123-5.123-13.424-5.123-18.547,0
			c-5.123,5.12-5.123,13.426,0,18.546L181.447,200l-46.928,46.926c-5.123,5.119-5.123,13.422,0,18.547
			c2.561,2.562,5.918,3.842,9.273,3.842s6.711-1.28,9.271-3.842L200,218.543l46.928,46.932c2.562,2.562,5.916,3.842,9.271,3.842
			c3.354,0,6.711-1.279,9.272-3.842c5.123-5.119,5.123-13.426,0-18.545L218.545,200l46.928-46.925
			C270.596,147.955,270.596,139.652,265.473,134.529z" />
		</g>
	</g>

</svg>